<?xml version="1.0" encoding="utf-8"?>
<!-- Generator: Adobe Illustrator 15.1.0, SVG Export Plug-In . SVG Version: 6.00 Build 0)  -->
<!DOCTYPE svg PUBLIC "-//W3C//DTD SVG 1.1//EN" "http://www.w3.org/Graphics/SVG/1.1/DTD/svg11.dtd">
<svg version="1.1" id="Layer_1" xmlns="http://www.w3.org/2000/svg" xmlns:xlink="http://www.w3.org/1999/xlink" x="0px" y="0px"
	 width="424.375px" height="120.237px" viewBox="0 0 424.375 120.237" enable-background="new 0 0 424.375 120.237"
	 xml:space="preserve">
<path fill="none" stroke="#754C29" stroke-width="3" stroke-miterlimit="10" d="M409.438,9.573
	c-158.516,34.673-296.617,23.203-383.104,8.01c0,0-24.834-3.927-24.834-17.552"/>
<path fill="none" stroke="#8B5E3C" stroke-width="3" stroke-miterlimit="10" d="M422.547,0c0,4.334-6.563,7.845-13.354,9.632"/>
<g>
	
		<rect x="24.956" y="29.519" transform="matrix(-0.9957 -0.0924 0.0924 -0.9957 76.52 98.4117)" fill="#C2B59B" width="31.166" height="35.831"/>
	
		<rect x="27.173" y="31.531" transform="matrix(-0.9957 -0.0924 0.0924 -0.9957 77.1679 93.7988)" fill="#3C2415" width="27.166" height="27.164"/>
	
		<text transform="matrix(0.9957 0.0924 -0.0924 0.9957 34.7021 53.4407)" fill="#FFFFFF" font-family="'MyriadPro-Semibold'" font-size="32">r</text>
</g>
<g>
	
		<rect x="35.872" y="14.593" transform="matrix(-0.9931 0.1172 -0.1172 -0.9931 78.619 43.2317)" fill="#A97C50" width="4.333" height="18.669"/>
	<line fill="none" stroke="#A7A9AC" stroke-miterlimit="10" x1="36.353" y1="28.731" x2="40.715" y2="28.252"/>
</g>
<g>
	
		<rect x="68.383" y="37.85" transform="matrix(-0.9968 0.0802 -0.0802 -0.9968 172.1359 104.6209)" fill="#C2B59B" width="31.169" height="35.832"/>
	
		<rect x="70.199" y="39.859" transform="matrix(-0.9968 0.0802 -0.0802 -0.9968 171.5832 99.9965)" fill="#3C2415" width="27.17" height="27.169"/>
	
		<text transform="matrix(0.9968 -0.0802 0.0802 0.9968 75.7783 65.3831)" fill="#FFFFFF" font-family="'MyriadPro-Semibold'" font-size="32">d</text>
</g>
<g>
	
		<rect x="79.156" y="22.919" transform="matrix(-0.9892 -0.1467 0.1467 -0.9892 157.0318 76.0889)" fill="#A97C50" width="4.333" height="18.668"/>
	<line fill="none" stroke="#A7A9AC" stroke-miterlimit="10" x1="78.433" y1="36.45" x2="82.769" y2="37.13"/>
</g>
<g>
	
		<rect x="110.699" y="39.877" transform="matrix(-0.9826 -0.1855 0.1855 -0.9826 239.6521 138.0096)" fill="#C2B59B" width="31.166" height="35.834"/>
	
		<rect x="113.131" y="41.925" transform="matrix(-0.9826 -0.1855 0.1855 -0.9826 240.9318 133.5573)" fill="#3C2415" width="27.166" height="27.167"/>
	
		<text transform="matrix(0.9827 0.1854 -0.1854 0.9827 119.7363 59.9963)" fill="#FFFFFF" font-family="'MyriadPro-Semibold'" font-size="32.0036">y</text>
</g>
<g>
	
		<rect x="121.518" y="26.607" transform="matrix(-1 -0.0029 0.0029 -1 247.2628 72.2436)" fill="#A97C50" width="4.333" height="18.667"/>
	<line fill="none" stroke="#A7A9AC" stroke-miterlimit="10" x1="121.433" y1="40.51" x2="125.822" y2="40.557"/>
</g>
<g>
	
		<rect x="201.315" y="43.058" transform="matrix(-0.9827 -0.1854 0.1854 -0.9827 418.7309 161.1103)" fill="#C2B59B" width="31.167" height="35.838"/>
	
		<rect x="203.748" y="45.117" transform="matrix(-0.9826 -0.1855 0.1855 -0.9826 420.0044 156.691)" fill="#3C2415" width="27.168" height="27.165"/>
	
		<text transform="matrix(0.9827 0.1854 -0.1854 0.9827 206.5312 69.3157)" fill="#FFFFFF" font-family="'MyriadPro-Semibold'" font-size="32.0036">h</text>
</g>
<g>
	
		<rect x="212.128" y="29.799" transform="matrix(-1 -0.0027 0.0027 -1 428.4822 78.8446)" fill="#A97C50" width="4.333" height="18.667"/>
	<line fill="none" stroke="#A7A9AC" stroke-miterlimit="10" x1="212.045" y1="43.702" x2="216.434" y2="43.749"/>
</g>
<g>
	
		<rect x="246.206" y="40.219" transform="matrix(-0.9945 0.1043 -0.1043 -0.9945 528.2075 88.6437)" fill="#C2B59B" width="31.161" height="35.826"/>
	
		<rect x="247.967" y="42.207" transform="matrix(-0.9945 0.1043 -0.1043 -0.9945 527.4907 83.985)" fill="#3C2415" width="27.164" height="27.164"/>
	
		<text transform="matrix(0.9945 -0.1043 0.1043 0.9945 254.9053 64.6438)" fill="#FFFFFF" font-family="'MyriadPro-Semibold'" font-size="31.9955">a</text>
</g>
<g>
	
		<rect x="256.582" y="26.931" transform="matrix(-0.9992 -0.0395 0.0395 -0.9992 515.8638 82.7094)" fill="#A97C50" width="4.331" height="18.667"/>
	<line fill="none" stroke="#A7A9AC" stroke-miterlimit="10" x1="256.342" y1="40.736" x2="260.729" y2="40.943"/>
</g>
<g>
	
		<rect x="288.933" y="36.894" transform="matrix(-0.9999 0.0106 -0.0106 -0.9999 609.5953 106.3788)" fill="#C2B59B" width="31.164" height="35.828"/>
	
		<rect x="290.91" y="38.894" transform="matrix(-0.9999 0.0106 -0.0106 -0.9999 609.5228 101.7184)" fill="#3C2415" width="27.164" height="27.164"/>
	
		<text transform="matrix(0.9999 -0.0107 0.0107 0.9999 295.1045 61.0969)" fill="#FFFFFF" font-family="'MyriadPro-Semibold'" font-size="31.9958">n</text>
</g>
<g>
	
		<rect x="299.5" y="23.58" transform="matrix(-0.991 0.1337 -0.1337 -0.991 605.0231 25.2012)" fill="#A97C50" width="4.332" height="18.665"/>
	<line fill="none" stroke="#A7A9AC" stroke-miterlimit="10" x1="300.068" y1="37.749" x2="304.424" y2="37.196"/>
</g>
<g>
	
		<rect x="334.566" y="30.432" transform="matrix(-0.9696 0.2447 -0.2447 -0.9696 701.4841 9.5489)" fill="#C2B59B" width="31.166" height="35.833"/>
	
		<rect x="335.995" y="32.489" transform="matrix(-0.9696 0.2447 -0.2447 -0.9696 699.804 5.2054)" fill="#3C2415" width="27.167" height="27.167"/>
	
		<text transform="matrix(0.9696 -0.2447 0.2447 0.9696 343.3535 53.9934)" fill="#FFFFFF" font-family="'MyriadPro-Semibold'" font-size="32">g</text>
</g>
<g>
	
		<rect x="344.301" y="17.21" transform="matrix(-0.9532 -0.3023 0.3023 -0.9532 668.7043 156.5692)" fill="#A97C50" width="4.333" height="18.666"/>
	<line fill="none" stroke="#A7A9AC" stroke-miterlimit="10" x1="342.952" y1="30.213" x2="347.126" y2="31.573"/>
</g>
<g>
	
		<rect x="378.201" y="21.592" transform="matrix(-0.9066 -0.4221 0.4221 -0.9066 734.09 241.5335)" fill="#C2B59B" width="31.162" height="35.828"/>
	
		<rect x="381.191" y="23.834" transform="matrix(-0.9065 -0.4222 0.4222 -0.9065 736.8398 238.0064)" fill="#3C2415" width="27.165" height="27.167"/>
	
		<text transform="matrix(0.9065 0.4221 -0.4221 0.9065 384.9629 44.6125)" fill="#FFFFFF" font-family="'MyriadPro-Semibold'" font-size="31.9958">?</text>
</g>
<g>
	
		<rect x="389.63" y="9.875" transform="matrix(-1 -0.0041 0.0041 -1 783.5126 40.0068)" fill="#A97C50" width="4.333" height="18.667"/>
	<line fill="none" stroke="#A7A9AC" stroke-miterlimit="10" x1="389.539" y1="23.76" x2="393.928" y2="23.813"/>
</g>
<g>
	
		<rect x="156.818" y="42.847" transform="matrix(-0.9971 0.0762 -0.0762 -0.9971 348.9323 108.2129)" fill="#C2B59B" width="31.167" height="35.834"/>
	
		<rect x="158.643" y="44.854" transform="matrix(-0.9971 0.0762 -0.0762 -0.9971 348.4057 103.5816)" fill="#FFFFFF" width="27.167" height="27.168"/>
	
		<text transform="matrix(0.9971 -0.0763 0.0763 0.9971 165.4521 69.3098)" fill="#3C2415" font-family="'MyriadPro-Semibold'" font-size="32">2</text>
</g>
<g>
	
		<rect x="166.93" y="29.536" transform="matrix(-1 -0.0027 0.0027 -1 338.0867 78.1969)" fill="#A97C50" width="4.333" height="18.667"/>
	<line fill="none" stroke="#A7A9AC" stroke-miterlimit="10" x1="166.848" y1="43.437" x2="171.236" y2="43.484"/>
</g>
<path fill="none" stroke="#8B5E3C" stroke-width="3" stroke-miterlimit="10" d="M505.543-21.258"/>
<line fill="none" stroke="#754C29" stroke-width="3" stroke-miterlimit="10" x1="237.854" y1="31.238" x2="241.354" y2="122.238"/>
<line fill="none" stroke="#754C29" stroke-width="3" stroke-miterlimit="10" x1="193.188" y1="31.906" x2="193.021" y2="121.738"/>
</svg>
