<?xml version="1.0" encoding="utf-8"?>
<!-- Generator: Adobe Illustrator 15.1.0, SVG Export Plug-In . SVG Version: 6.00 Build 0)  -->
<!DOCTYPE svg PUBLIC "-//W3C//DTD SVG 1.1//EN" "http://www.w3.org/Graphics/SVG/1.1/DTD/svg11.dtd">
<svg version="1.1" id="Layer_1" xmlns="http://www.w3.org/2000/svg" xmlns:xlink="http://www.w3.org/1999/xlink" x="0px" y="0px"
	 width="424.375px" height="81.475px" viewBox="0 0 424.375 81.475" enable-background="new 0 0 424.375 81.475"
	 xml:space="preserve">
<path fill="none" stroke="#8B5E3C" stroke-width="3" stroke-miterlimit="10" d="M409.438,9.572
	C250.922,44.246,112.821,32.778,26.334,17.583c0,0-24.834-3.927-24.834-17.552"/>
<path fill="none" stroke="#8B5E3C" stroke-width="3" stroke-miterlimit="10" d="M422.547,0c0,4.334-6.566,7.845-13.354,9.632"/>
<g>
	
		<rect x="24.958" y="29.517" transform="matrix(0.9957 0.0924 -0.0924 0.9957 4.5541 -3.5415)" fill="#C2B59B" width="31.166" height="35.833"/>
	<rect x="27.175" y="31.53" transform="matrix(0.9957 0.0924 -0.0924 0.9957 4.3411 -3.5718)" width="27.167" height="27.167"/>
	
		<text transform="matrix(0.9957 0.0924 -0.0924 0.9957 34.7021 53.4409)" fill="#FFFFFF" font-family="'MyriadPro-Semibold'" font-size="32">r</text>
</g>
<g>
	
		<rect x="35.872" y="14.594" transform="matrix(0.9931 -0.1172 0.1172 0.9931 -2.542 4.6227)" fill="#A97C50" width="4.333" height="18.667"/>
	<line fill="none" stroke="#A7A9AC" stroke-miterlimit="10" x1="36.353" y1="28.731" x2="40.715" y2="28.252"/>
</g>
<g>
	
		<rect x="68.382" y="37.851" transform="matrix(0.9968 -0.0802 0.0802 0.9968 -4.2013 6.9122)" fill="#C2B59B" width="31.166" height="35.832"/>
	<rect x="70.197" y="39.861" transform="matrix(0.9968 -0.0802 0.0802 0.9968 -4.0154 6.8896)" width="27.167" height="27.166"/>
	
		<text transform="matrix(0.9968 -0.0802 0.0802 0.9968 75.7783 65.3828)" fill="#FFFFFF" font-family="'MyriadPro-Semibold'" font-size="32">d</text>
</g>
<g>
	
		<rect x="79.151" y="22.922" transform="matrix(0.9892 0.1468 -0.1468 0.9892 5.6181 -11.5915)" fill="#A97C50" width="4.333" height="18.667"/>
	<line fill="none" stroke="#A7A9AC" stroke-miterlimit="10" x1="78.433" y1="36.45" x2="82.769" y2="37.13"/>
</g>
<g>
	
		<rect x="110.694" y="39.871" transform="matrix(0.9827 0.1855 -0.1855 0.9827 12.9085 -22.4175)" fill="#C2B59B" width="31.166" height="35.833"/>
	<rect x="113.128" y="41.914" transform="matrix(0.9827 0.1855 -0.1855 0.9827 12.4912 -22.5378)" width="27.167" height="27.167"/>
	
		<text transform="matrix(0.9827 0.1854 -0.1854 0.9827 119.7373 59.9971)" fill="#FFFFFF" font-family="'MyriadPro-Semibold'" font-size="32">y</text>
</g>
<g>
	
		<rect x="121.516" y="26.609" transform="matrix(1 0.0028 -0.0028 1 0.1018 -0.3483)" fill="#A97C50" width="4.333" height="18.667"/>
	<line fill="none" stroke="#A7A9AC" stroke-miterlimit="10" x1="121.433" y1="40.51" x2="125.822" y2="40.557"/>
</g>
<g>
	
		<rect x="201.306" y="43.063" transform="matrix(0.9827 0.1854 -0.1854 0.9827 15.0682 -39.1588)" fill="#C2B59B" width="31.165" height="35.833"/>
	<rect x="203.739" y="45.106" transform="matrix(0.9827 0.1855 -0.1855 0.9827 14.655 -39.2871)" width="27.168" height="27.166"/>
	
		<text transform="matrix(0.9827 0.1854 -0.1854 0.9827 206.5342 69.3154)" fill="#FFFFFF" font-family="'MyriadPro-Semibold'" font-size="32">h</text>
</g>
<g>
	<rect x="212.127" y="29.8" transform="matrix(1 0.0027 -0.0027 1 0.1066 -0.5794)" fill="#A97C50" width="4.333" height="18.667"/>
	<line fill="none" stroke="#A7A9AC" stroke-miterlimit="10" x1="212.045" y1="43.702" x2="216.433" y2="43.749"/>
</g>
<g>
	
		<rect x="246.218" y="40.201" transform="matrix(0.9945 -0.1043 0.1043 0.9945 -4.6347 27.6308)" fill="#C2B59B" width="31.165" height="35.832"/>
	<rect x="247.976" y="42.215" transform="matrix(0.9945 -0.1043 0.1043 0.9945 -4.3932 27.5851)" width="27.167" height="27.167"/>
	
		<text transform="matrix(0.9945 -0.1043 0.1043 0.9945 254.9053 64.6436)" fill="#FFFFFF" font-family="'MyriadPro-Semibold'" font-size="32">a</text>
</g>
<g>
	
		<rect x="256.59" y="26.919" transform="matrix(0.9924 -0.123 0.123 0.9924 -2.4943 32.097)" fill="#A97C50" width="4.332" height="18.667"/>
	<line fill="none" stroke="#A7A9AC" stroke-miterlimit="10" x1="257.1" y1="41.068" x2="261.461" y2="40.562"/>
</g>
<g>
	
		<rect x="288.948" y="36.874" transform="matrix(0.9999 -0.0106 0.0106 0.9999 -0.5656 3.2426)" fill="#C2B59B" width="31.167" height="35.832"/>
	<rect x="290.925" y="38.876" transform="matrix(0.9999 -0.0106 0.0106 0.9999 -0.5401 3.2377)" width="27.166" height="27.166"/>
	
		<text transform="matrix(0.9999 -0.0107 0.0107 0.9999 295.1045 61.0933)" fill="#FFFFFF" font-family="'MyriadPro-Semibold'" font-size="32">n</text>
</g>
<g>
	
		<rect x="299.507" y="23.588" transform="matrix(1 0.0028 -0.0028 1 0.094 -0.8499)" fill="#A97C50" width="4.332" height="18.667"/>
	<line fill="none" stroke="#A7A9AC" stroke-miterlimit="10" x1="299.425" y1="37.488" x2="303.814" y2="37.536"/>
</g>
<g>
	
		<rect x="334.565" y="30.425" transform="matrix(0.9696 -0.2447 0.2447 0.9696 -1.1836 87.1572)" fill="#C2B59B" width="31.166" height="35.833"/>
	<rect x="335.996" y="32.498" transform="matrix(0.9696 -0.2447 0.2447 0.9696 -0.6492 86.937)" width="27.166" height="27.167"/>
	
		<text transform="matrix(0.9696 -0.2447 0.2447 0.9696 343.3535 53.9937)" fill="#FFFFFF" font-family="'MyriadPro-Semibold'" font-size="32">g</text>
</g>
<g>
	
		<rect x="344.299" y="17.196" transform="matrix(0.9533 0.302 -0.302 0.9533 24.1882 -103.392)" fill="#A97C50" width="4.333" height="18.667"/>
	<line fill="none" stroke="#A7A9AC" stroke-miterlimit="10" x1="342.952" y1="30.213" x2="347.126" y2="31.573"/>
</g>
<g>
	
		<rect x="378.214" y="21.6" transform="matrix(0.9065 0.4221 -0.4221 0.9065 53.4883 -162.5425)" fill="#C2B59B" width="31.166" height="35.833"/>
	<rect x="381.2" y="23.82" transform="matrix(0.9065 0.4222 -0.4222 0.9065 52.6947 -163.1664)" width="27.165" height="27.167"/>
	
		<text transform="matrix(0.9065 0.4221 -0.4221 0.9065 384.9609 44.6143)" fill="#FFFFFF" font-family="'MyriadPro-Semibold'" font-size="32">?</text>
</g>
<g>
	
		<rect x="389.628" y="9.862" transform="matrix(1 0.0042 -0.0042 1 0.0835 -1.6334)" fill="#A97C50" width="4.333" height="18.667"/>
	<line fill="none" stroke="#A7A9AC" stroke-miterlimit="10" x1="389.539" y1="23.76" x2="393.928" y2="23.813"/>
</g>
<g>
	
		<rect x="156.819" y="42.838" transform="matrix(0.9971 -0.0762 0.0762 0.9971 -4.1306 13.3225)" fill="#C2B59B" width="31.167" height="35.832"/>
	
		<rect x="158.643" y="44.847" transform="matrix(0.9971 -0.0762 0.0762 0.9971 -3.9536 13.3011)" fill="#FFFFFF" width="27.167" height="27.166"/>
	<text transform="matrix(0.9971 -0.0763 0.0763 0.9971 165.4526 69.3105)" font-family="'MyriadPro-Semibold'" font-size="32">2</text>
</g>
<g>
	
		<rect x="166.93" y="29.535" transform="matrix(1 0.0026 -0.0026 1 0.1013 -0.4381)" fill="#A97C50" width="4.333" height="18.667"/>
	<line fill="none" stroke="#A7A9AC" stroke-miterlimit="10" x1="166.848" y1="43.437" x2="171.236" y2="43.484"/>
</g>
<path fill="none" stroke="#8B5E3C" stroke-width="3" stroke-miterlimit="10" d="M505.543-21.258"/>
</svg>
